<?xml version="1.0" encoding="utf-8"?>
<svg alt="Mollie" viewBox="0 0 69 20" xmlns="http://www.w3.org/2000/svg">
  <g stroke="none" fill-rule="evenodd">
  <path d="M29.1397289,17.2784173 C26.9697185,17.2784173 25.2105422,15.5194245 25.2105422,13.3496403 C25.2105422,11.1798561 26.9697185,9.42086331 29.1397289,9.42086331 C31.3097393,9.42086331 33.0689155,11.1798561 33.0689155,13.3496403 C33.0689155,15.5194245 31.3097393,17.2784173 29.1397289,17.2784173 L29.1397289,17.2784173 Z M29.1397289,6.71366906 C25.4745985,6.71366906 22.5030657,9.68489209 22.5030657,13.3496403 C22.5030657,17.0143885 25.4745985,19.9856115 29.1397289,19.9856115 C32.8048592,19.9856115 35.7763921,17.0143885 35.7763921,13.3496403 C35.7763921,9.68489209 32.8048592,6.71366906 29.1397289,6.71366906 L29.1397289,6.71366906 Z"></path>
  <path d="M54.0344108,1.87052518 C54.0344108,2.90354676 53.1968415,3.74102878 52.1637122,3.74102878 C51.1305829,3.74102878 50.2930136,2.90354676 50.2930136,1.87052518 C50.2930136,0.837503597 51.1305829,2.15827338e-05 52.1637122,2.15827338e-05 C53.1968415,2.15827338e-05 54.0344108,0.837503597 54.0344108,1.87052518"></path>
  <path d="M20.2179353,12.5127266 L20.2179353,19.7020791 L17.4838373,19.7020791 L17.4838373,12.4164676 C17.4731168,10.7792734 16.1292357,9.4367554 14.488561,9.42236691 C12.8119114,9.40761871 11.4400417,10.8216475 11.4400417,12.4982662 L11.4400417,19.7020791 L8.70594369,19.7020791 L8.70594369,12.4358921 C8.69522315,10.7907122 7.35724192,9.44704317 5.71750261,9.43171942 C4.03703962,9.41596403 2.66214807,10.8326547 2.66214807,12.5130144 L2.66214807,19.7020791 L0,19.7020791 L0,12.4164676 C0,9.2567554 2.55997914,6.70064029 5.72074035,6.70064029 C7.47272158,6.70064029 9.04036705,7.49416547 10.0908363,8.73445324 C10.0922753,8.73589209 10.0893973,8.73589209 10.0908363,8.73445324 C11.1744025,7.45215108 12.8245746,6.64596403 14.6454838,6.69797842 C17.7623556,6.78711511 20.2179353,9.39495683 20.2179353,12.5127266"></path>
  <polygon points="38.1334724 19.7122302 40.8675704 19.7122302 40.8675704 0.327194245 38.1334724 0.327194245"></polygon>
  <polygon points="44.4650678 19.7122302 47.1991658 19.7122302 47.1991658 0.327194245 44.4650678 0.327194245"></polygon>
  <polygon points="50.7966632 19.7018705 53.5307612 19.7018705 53.5307612 7.04 50.7966632 7.04"></polygon>
  <path d="M62.6059304,9.13030216 C64.4233861,9.13030216 65.942969,10.4051223 66.3199868,12.1087194 L58.8918741,12.1087194 C59.2688919,10.4051223 60.7884748,9.13030216 62.6059304,9.13030216 M62.6573027,6.69634532 C59.0593017,6.74296403 56.153675,9.65310791 56.1112965,13.2518129 C56.0679106,16.9270647 59.0683674,19.9653381 62.7442182,19.9677122 C65.1736802,19.969295 67.298506,18.665482 68.4561088,16.7196547 C68.4577636,16.7169209 68.4566844,16.7132518 68.4537344,16.7118129 L66.239115,15.6216691 C65.537603,16.7828201 64.2635133,17.5590791 62.8079659,17.5590791 C60.8394153,17.5590791 59.2026979,16.1389353 58.8659722,14.2669928 L68.9999784,14.2669928 L68.9999784,13.0353381 C68.9999784,9.54720863 66.1455081,6.65109353 62.6573027,6.69634532"></path>
  </g>
</svg>
